<svg width="1905" height="1066" viewBox="0 0 1905 1066" fill="none" xmlns="http://www.w3.org/2000/svg">
<path d="M1007.11 530.529H979.03V1053.54H1007.11V530.529Z" fill="#F4E9C9" stroke="#681E28" stroke-width="3" stroke-linecap="round" stroke-linejoin="round"/>
<path d="M786.86 105.47C789.4 76.8997 805.62 1.21972 906.42 1.83972C999.99 2.40972 1019.49 67.0197 1023.41 98.8597C1024.5 107.73 1024.33 116.7 1023.02 125.54C1020.66 141.5 1017.51 157.54 1009.72 171.57C1001.49 186.4 983.66 205.32 991.5 224.14C994.77 231.98 1002.24 236.81 1009.73 239.87C1035.84 250.53 1063.71 244.78 1090.75 243.6C1133.26 241.74 1175.2 217.63 1211.2 195.21C1216.81 191.72 1223.74 188.06 1229.41 191.44C1233.02 193.59 1234.85 197.97 1236.37 202.09C1264.71 279.19 1255.26 367.54 1213.89 437.48C1211.17 442.08 1208.34 446.6 1205.4 451.04C1186.98 478.83 1161.84 500.74 1132.58 514.07C1132.02 514.32 1131.47 514.56 1130.91 514.81C1099.29 528.92 1065.25 535.74 1031 535.74H928.88C845.87 535.74 762.57 446.47 753.43 377.27C744.31 308.06 794.84 268.94 817.3 248.63C839.76 228.32 816.59 201.99 816.59 201.99C812.13 196.59 808.34 190.99 805.1 185.39" fill="#F4E9C9"/>
<path d="M786.86 105.47C789.4 76.8997 805.62 1.21972 906.42 1.83972C999.99 2.40972 1019.49 67.0197 1023.41 98.8597C1024.5 107.73 1024.33 116.7 1023.02 125.54C1020.66 141.5 1017.51 157.54 1009.72 171.57C1001.49 186.4 983.66 205.32 991.5 224.14C994.77 231.98 1002.24 236.81 1009.73 239.87C1035.84 250.53 1063.71 244.78 1090.75 243.6C1133.26 241.74 1175.2 217.63 1211.2 195.21C1216.81 191.72 1223.74 188.06 1229.41 191.44C1233.02 193.59 1234.85 197.97 1236.37 202.09C1264.71 279.19 1255.26 367.54 1213.89 437.48C1211.17 442.08 1208.34 446.6 1205.4 451.04C1186.98 478.83 1161.84 500.74 1132.58 514.07C1132.02 514.32 1131.47 514.56 1130.91 514.81C1099.29 528.92 1065.25 535.74 1031 535.74H928.88C845.87 535.74 762.57 446.47 753.43 377.27C744.31 308.06 794.84 268.94 817.3 248.63C839.76 228.32 816.59 201.99 816.59 201.99C812.13 196.59 808.34 190.99 805.1 185.39" stroke="#681E28" stroke-width="3.22" stroke-linecap="round" stroke-linejoin="round"/>
<path d="M695.72 134.82C695.72 134.82 691.86 161.72 718.88 171.87C745.9 182.03 771.86 192.18 792.91 189.74C813.96 187.29 815.02 168.29 815.02 162.46C815.02 156.63 813.62 147.04 798.53 124.28L786.87 105.46C786.87 105.46 742.92 128.79 708.89 125.97C708.89 125.97 695.73 122.96 695.73 134.81L695.72 134.82Z" fill="#51141E" stroke="#681E28" stroke-width="3.22" stroke-linecap="round" stroke-linejoin="round"/>
<path d="M859.32 105.47C869.786 105.47 878.27 96.2246 878.27 84.8199C878.27 73.4152 869.786 64.1699 859.32 64.1699C848.854 64.1699 840.37 73.4152 840.37 84.8199C840.37 96.2246 848.854 105.47 859.32 105.47Z" fill="#51141E" stroke="#681E28" stroke-width="3.22" stroke-linecap="round" stroke-linejoin="round"/>
<path d="M918.17 264.17H998.49C1009.39 264.17 1013.41 268.38 1013.41 279.09V285.21C1013.41 295.92 1009.39 300.13 998.49 300.13H950.11V331.68H998.49C1009.39 331.68 1013.41 335.89 1013.41 346.6V352.72C1013.41 363.43 1009.39 367.64 998.49 367.64H918.17C907.27 367.64 903.25 363.43 903.25 352.72V279.09C903.25 268.38 907.27 264.17 918.17 264.17ZM1020.86 409.89H914.53C908.98 409.89 907.07 407.79 907.07 402.43V382.73C907.07 377.38 908.98 375.27 914.53 375.27H1067.9C1073.45 375.27 1075.36 377.37 1075.36 382.73V406.93C1075.36 408.87 1074.9 410.79 1074.02 412.53L1066.81 426.79C1064.76 430.83 1061.84 434.4 1058.16 437.03C1053.35 440.47 1048.94 441.25 1040.33 441.25H1024.1C1022.29 441.25 1020.82 439.78 1020.82 437.97L1020.85 409.89H1020.86ZM1068.86 367.63H1039.79C1035.58 367.63 1033.29 365.53 1033.29 361.13V334.36H1022.77C1017.22 334.36 1015.31 332.26 1015.31 326.9V306.59C1015.31 301.24 1017.22 299.13 1022.77 299.13H1033.29V270.68C1033.29 266.28 1035.58 264.18 1039.79 264.18H1068.86C1073.07 264.18 1075.36 266.28 1075.36 270.68V361.13C1075.36 365.53 1073.07 367.63 1068.86 367.63Z" fill="#681E28"/>
<path d="M1229.4 192.59C1227.13 206.36 1220.3 227.98 1199.86 238.01" stroke="#681E28" stroke-width="3.43" stroke-linecap="round" stroke-linejoin="round"/>
<path d="M1237.44 206.22C1235.92 219.31 1230.02 244.79 1207.3 255.94" stroke="#681E28" stroke-width="3.43" stroke-linecap="round" stroke-linejoin="round"/>
<path d="M1243.38 225.489C1241.86 238.579 1235.96 264.059 1213.24 275.209" stroke="#681E28" stroke-width="3.43" stroke-linecap="round" stroke-linejoin="round"/>
<path d="M1139.03 402.99C1143.32 414.89 1145.42 432.07 1131.6 446.09C1115.67 462.24 1082.18 480.51 1044.28 484.29C991.03 489.6 901.69 492.79 863.58 445.05C839.38 414.74 842.15 389.2 853.04 370" stroke="#681E28" stroke-width="3.43" stroke-linecap="round" stroke-linejoin="round"/>
<path d="M1103.57 416.439C1103.57 416.439 1186.17 393.429 1167.29 357.439L1103.57 416.439Z" fill="#F4E9C9"/>
<path d="M1103.57 416.439C1103.57 416.439 1186.17 393.429 1167.29 357.439" stroke="#681E28" stroke-width="3.22" stroke-linecap="round" stroke-linejoin="round"/>
<path d="M1114.17 382.79C1114.17 382.79 1196.77 359.78 1177.89 323.79L1114.17 382.79Z" fill="#F4E9C9"/>
<path d="M1114.17 382.79C1114.17 382.79 1196.77 359.78 1177.89 323.79" stroke="#681E28" stroke-width="3.22" stroke-linecap="round" stroke-linejoin="round"/>
<path d="M1657.45 530.529H1629.37V1053.54H1657.45V530.529Z" fill="#F4E9C9" stroke="#681E28" stroke-width="3" stroke-linecap="round" stroke-linejoin="round"/>
<path d="M1437.19 105.47C1439.73 76.8997 1455.95 1.21972 1556.75 1.83972C1650.32 2.40972 1669.82 67.0197 1673.74 98.8597C1674.83 107.73 1674.66 116.7 1673.35 125.54C1670.99 141.5 1667.84 157.54 1660.05 171.57C1651.82 186.4 1633.99 205.32 1641.83 224.14C1645.1 231.98 1652.57 236.81 1660.06 239.87C1686.17 250.53 1714.04 244.78 1741.08 243.6C1783.59 241.74 1825.53 217.63 1861.53 195.21C1867.14 191.72 1874.07 188.06 1879.74 191.44C1883.35 193.59 1885.18 197.97 1886.7 202.09C1915.04 279.19 1905.59 367.54 1864.22 437.48C1861.5 442.08 1858.67 446.6 1855.73 451.04C1837.31 478.83 1812.17 500.74 1782.91 514.07C1782.35 514.32 1781.8 514.56 1781.24 514.81C1749.62 528.92 1715.58 535.74 1681.33 535.74H1579.21C1496.2 535.74 1412.9 446.47 1403.76 377.27C1394.64 308.06 1445.17 268.94 1467.63 248.63C1490.09 228.32 1466.92 201.99 1466.92 201.99C1462.46 196.59 1458.67 190.99 1455.43 185.39" fill="#F4E9C9"/>
<path d="M1437.19 105.47C1439.73 76.8997 1455.95 1.21972 1556.75 1.83972C1650.32 2.40972 1669.82 67.0197 1673.74 98.8597C1674.83 107.73 1674.66 116.7 1673.35 125.54C1670.99 141.5 1667.84 157.54 1660.05 171.57C1651.82 186.4 1633.99 205.32 1641.83 224.14C1645.1 231.98 1652.57 236.81 1660.06 239.87C1686.17 250.53 1714.04 244.78 1741.08 243.6C1783.59 241.74 1825.53 217.63 1861.53 195.21C1867.14 191.72 1874.07 188.06 1879.74 191.44C1883.35 193.59 1885.18 197.97 1886.7 202.09C1915.04 279.19 1905.59 367.54 1864.22 437.48C1861.5 442.08 1858.67 446.6 1855.73 451.04C1837.31 478.83 1812.17 500.74 1782.91 514.07C1782.35 514.32 1781.8 514.56 1781.24 514.81C1749.62 528.92 1715.58 535.74 1681.33 535.74H1579.21C1496.2 535.74 1412.9 446.47 1403.76 377.27C1394.64 308.06 1445.17 268.94 1467.63 248.63C1490.09 228.32 1466.92 201.99 1466.92 201.99C1462.46 196.59 1458.67 190.99 1455.43 185.39" stroke="#681E28" stroke-width="3.22" stroke-linecap="round" stroke-linejoin="round"/>
<path d="M1346.05 134.82C1346.05 134.82 1342.19 161.72 1369.21 171.87C1396.23 182.02 1422.19 192.18 1443.24 189.74C1464.29 187.29 1465.35 168.29 1465.35 162.46C1465.35 156.63 1463.95 147.04 1448.86 124.28L1437.2 105.46C1437.2 105.46 1393.25 128.79 1359.22 125.97C1359.22 125.97 1346.06 122.96 1346.06 134.81L1346.05 134.82Z" fill="#51141E" stroke="#681E28" stroke-width="3.22" stroke-linecap="round" stroke-linejoin="round"/>
<path d="M1568.5 264.17H1648.82C1659.72 264.17 1663.74 268.38 1663.74 279.09V285.21C1663.74 295.92 1659.72 300.13 1648.82 300.13H1600.44V331.68H1648.82C1659.72 331.68 1663.74 335.89 1663.74 346.6V352.72C1663.74 363.43 1659.72 367.64 1648.82 367.64H1568.5C1557.6 367.64 1553.58 363.43 1553.58 352.72V279.09C1553.58 268.38 1557.6 264.17 1568.5 264.17ZM1671.2 409.89H1564.87C1559.32 409.89 1557.41 407.79 1557.41 402.43V382.73C1557.41 377.38 1559.32 375.27 1564.87 375.27H1718.24C1723.79 375.27 1725.7 377.37 1725.7 382.73V406.93C1725.7 408.87 1725.24 410.79 1724.36 412.53L1717.15 426.79C1715.1 430.83 1712.18 434.4 1708.5 437.03C1703.69 440.47 1699.28 441.25 1690.67 441.25H1674.44C1672.63 441.25 1671.16 439.78 1671.16 437.97L1671.19 409.89H1671.2ZM1719.2 367.63H1690.13C1685.92 367.63 1683.63 365.53 1683.63 361.13V334.36H1673.11C1667.56 334.36 1665.65 332.26 1665.65 326.9V306.59C1665.65 301.24 1667.56 299.13 1673.11 299.13H1683.63V270.68C1683.63 266.28 1685.92 264.18 1690.13 264.18H1719.2C1723.41 264.18 1725.7 266.28 1725.7 270.68V361.13C1725.7 365.53 1723.41 367.63 1719.2 367.63Z" fill="#681E28"/>
<path d="M1879.74 192.59C1877.47 206.36 1870.64 227.98 1850.2 238.01" stroke="#681E28" stroke-width="3.43" stroke-linecap="round" stroke-linejoin="round"/>
<path d="M1887.77 206.22C1886.25 219.31 1880.35 244.79 1857.63 255.94" stroke="#681E28" stroke-width="3.43" stroke-linecap="round" stroke-linejoin="round"/>
<path d="M1893.72 225.489C1892.2 238.579 1886.3 264.059 1863.58 275.209" stroke="#681E28" stroke-width="3.43" stroke-linecap="round" stroke-linejoin="round"/>
<path d="M1789.37 402.99C1793.66 414.89 1795.76 432.07 1781.94 446.09C1766.01 462.24 1732.52 480.51 1694.62 484.29C1641.37 489.6 1552.03 492.79 1513.92 445.05C1489.72 414.74 1492.49 389.2 1503.38 370" stroke="#681E28" stroke-width="3.43" stroke-linecap="round" stroke-linejoin="round"/>
<path d="M1753.91 416.439C1753.91 416.439 1836.51 393.429 1817.63 357.439L1753.91 416.439Z" fill="#F4E9C9"/>
<path d="M1753.91 416.439C1753.91 416.439 1836.51 393.429 1817.63 357.439" stroke="#681E28" stroke-width="3.22" stroke-linecap="round" stroke-linejoin="round"/>
<path d="M1764.51 382.79C1764.51 382.79 1847.11 359.78 1828.23 323.79L1764.51 382.79Z" fill="#F4E9C9"/>
<path d="M1764.51 382.79C1764.51 382.79 1847.11 359.78 1828.23 323.79" stroke="#681E28" stroke-width="3.22" stroke-linecap="round" stroke-linejoin="round"/>
<path d="M1481.11 86.9996L1522.12 64.6396" stroke="#681E28" stroke-width="5" stroke-linecap="round" stroke-linejoin="round"/>
<path d="M1501.62 109.329C1510.23 109.329 1517.21 102.35 1517.21 93.7394C1517.21 85.1293 1510.23 78.1494 1501.62 78.1494C1493.01 78.1494 1486.03 85.1293 1486.03 93.7394C1486.03 102.35 1493.01 109.329 1501.62 109.329Z" fill="#681E28"/>
<path d="M270.739 545.194H242.889V1063.98H270.739V545.194Z" fill="#F4E9C9" stroke="#681E28" stroke-width="3" stroke-linecap="round" stroke-linejoin="round"/>
<path d="M270.739 545.193H242.889V1063.98H270.739V545.193Z" fill="#F4E9C9" stroke="#681E28" stroke-width="3" stroke-linecap="round" stroke-linejoin="round"/>
<path d="M363.519 282.224C360.949 284.244 358.159 283.544 356.229 282.574C353.689 285.014 352.539 287.634 353.469 289.494C353.569 289.694 354.939 291.564 355.069 291.734C356.709 293.654 360.889 293.754 365.469 292.054C365.479 292.054 365.489 292.054 365.499 292.044C366.609 291.164 367.889 290.354 369.299 289.644C370.139 289.214 370.979 288.854 371.809 288.554C371.809 288.554 371.829 288.544 371.839 288.534C374.999 286.064 376.789 283.184 376.299 281.034C376.249 280.804 374.929 278.894 374.809 278.674C373.859 276.804 370.979 276.204 367.439 276.854C367.059 278.814 365.689 280.514 363.509 282.234L363.519 282.224Z" fill="#F4E9C9" stroke="#681E28" stroke-width="3" stroke-linecap="round" stroke-linejoin="round"/>
<path d="M351.839 172.544C357.049 175.464 363.299 177.754 371.759 185.394C387.489 199.604 401.359 233.994 404.479 240.244C405.499 242.264 406.549 243.734 407.709 244.724C410.119 246.784 412.909 246.734 416.529 245.254C418.219 244.564 419.199 243.414 419.769 242.164C420.989 239.444 420.219 236.194 420.219 236.194L402.969 202.484C390.069 179.954 371.119 166.034 357.499 158.334C355.279 160.704 352.969 162.964 350.599 165.084C351.439 166.994 351.889 169.074 351.889 171.284C351.889 171.704 351.869 172.114 351.839 172.534V172.544Z" fill="#F4E9C9"/>
<path d="M407.709 244.724C406.549 243.734 405.499 242.264 404.479 240.244C401.359 233.994 387.489 199.604 371.759 185.394C363.299 177.754 357.049 175.464 351.839 172.544V172.534C351.869 172.114 351.889 171.704 351.889 171.284C351.889 169.074 351.439 166.994 350.599 165.084C352.969 162.964 355.279 160.704 357.499 158.334C371.119 166.034 390.069 179.954 402.969 202.484L420.219 236.194C420.219 236.194 420.989 239.444 419.769 242.164C419.199 243.414 418.219 244.564 416.529 245.254C412.909 246.734 410.119 246.784 407.709 244.724ZM407.709 244.724H407.729" stroke="#681E28" stroke-width="3" stroke-linecap="round" stroke-linejoin="round"/>
<path d="M351.889 171.284C351.889 171.704 351.869 172.124 351.839 172.534C351.869 172.114 351.889 171.704 351.889 171.284C351.889 169.074 351.439 166.984 350.599 165.084C351.439 166.994 351.889 169.074 351.889 171.284Z" fill="#F4E9C9"/>
<path d="M351.889 171.284C351.889 171.704 351.869 172.124 351.839 172.534C351.869 172.114 351.889 171.704 351.889 171.284ZM351.889 171.284C351.889 169.074 351.439 166.984 350.599 165.084M351.889 171.284C351.889 169.074 351.439 166.994 350.599 165.084M350.599 165.084C350.329 164.464 350.019 163.874 349.679 163.304" stroke="#681E28" stroke-width="3" stroke-linecap="round" stroke-linejoin="round"/>
<path d="M321.119 168.284C322.509 161.144 328.809 155.764 336.349 155.764C336.999 155.764 337.639 155.794 338.269 155.894C343.119 156.474 347.279 159.304 349.679 163.304C347.269 159.304 343.119 156.474 338.259 155.884C337.619 155.784 336.989 155.754 336.339 155.754C328.799 155.754 322.499 161.134 321.109 168.274C320.909 169.244 320.809 170.244 320.809 171.284C320.809 173.944 321.479 176.434 322.649 178.624C321.479 176.444 320.809 173.944 320.809 171.294C320.809 170.254 320.909 169.254 321.109 168.284H321.119Z" fill="#F4E9C9" stroke="#681E28" stroke-width="3" stroke-linecap="round" stroke-linejoin="round"/>
<path d="M365.509 292.034C366.329 291.734 367.179 291.374 368.019 290.944C369.429 290.234 370.699 289.424 371.819 288.544C370.999 288.844 370.149 289.204 369.309 289.634C367.899 290.344 366.629 291.154 365.509 292.034Z" fill="#F4E9C9" stroke="#681E28" stroke-width="3" stroke-linecap="round" stroke-linejoin="round"/>
<path d="M384.159 292.093C384.159 292.093 384.139 292.073 384.139 292.063V292.083C384.159 292.083 384.159 292.103 384.159 292.103V292.093Z" fill="#F4E9C9" stroke="#681E28" stroke-width="3" stroke-linecap="round" stroke-linejoin="round"/>
<path d="M322.659 178.624C323.359 179.934 324.249 181.134 325.279 182.184" stroke="#681E28" stroke-width="3" stroke-linecap="round" stroke-linejoin="round"/>
<path d="M384.099 291.774C384.069 291.644 383.649 290.984 383.249 290.384C383.569 290.934 383.849 291.484 384.149 292.044C384.129 291.954 384.119 291.864 384.099 291.764V291.774Z" fill="#F4E9C9" stroke="#681E28" stroke-width="3" stroke-linecap="round" stroke-linejoin="round"/>
<path d="M420.999 254.594C420.109 254.684 419.199 254.824 418.269 255.024C416.709 255.364 415.249 255.834 413.949 256.394C414.839 256.304 415.759 256.164 416.689 255.964C418.249 255.624 419.689 255.154 420.989 254.594H420.999Z" fill="#F4E9C9" stroke="#681E28" stroke-width="3" stroke-linecap="round" stroke-linejoin="round"/>
<path d="M332.349 186.293C333.619 186.623 334.959 186.813 336.339 186.813C344.509 186.813 351.199 180.533 351.829 172.543C351.859 172.123 351.879 171.703 351.879 171.293C351.879 169.083 351.429 166.993 350.589 165.093C350.319 164.483 350.009 163.883 349.669 163.313C347.259 159.313 343.109 156.493 338.259 155.903C337.619 155.803 336.989 155.773 336.339 155.773C328.799 155.773 322.499 161.153 321.109 168.293C320.909 169.263 320.809 170.263 320.809 171.303C320.809 173.953 321.479 176.453 322.649 178.633C323.349 179.943 324.239 181.143 325.269 182.193C327.189 184.133 329.609 185.583 332.339 186.303L332.349 186.293Z" fill="#F4E9C9" stroke="#681E28" stroke-width="3" stroke-linecap="round" stroke-linejoin="round"/>
<path d="M384.099 291.774C384.069 291.644 383.649 290.984 383.249 290.384C383.569 290.934 383.849 291.484 384.149 292.044C384.129 291.954 384.119 291.864 384.099 291.764V291.774Z" stroke="#681E28" stroke-width="3" stroke-linecap="round" stroke-linejoin="round"/>
<path d="M369.349 308.444C366.759 315.074 375.499 333.354 375.329 338.694C375.169 344.034 370.959 350.504 370.959 354.224C370.959 357.944 389.879 357.624 401.529 351.794C413.179 345.974 415.759 334.974 415.069 326.724C414.379 318.474 398.449 300.364 386.809 297.614C384.949 297.174 383.229 297.154 381.669 297.434C373.449 298.874 369.349 308.454 369.349 308.454V308.444Z" stroke="#681E28" stroke-width="3" stroke-linecap="round" stroke-linejoin="round"/>
<path d="M420.999 254.594C420.109 254.684 419.199 254.824 418.269 255.024C416.709 255.364 415.249 255.834 413.949 256.394C414.839 256.304 415.759 256.164 416.689 255.964C418.249 255.624 419.689 255.154 420.989 254.594H420.999Z" stroke="#681E28" stroke-width="3" stroke-linecap="round" stroke-linejoin="round"/>
<path d="M384.159 292.093C384.159 292.093 384.139 292.073 384.139 292.063V292.083C384.159 292.083 384.159 292.103 384.159 292.103V292.093Z" stroke="#681E28" stroke-width="3" stroke-linecap="round" stroke-linejoin="round"/>
<path d="M325.649 233.823C327.639 238.933 330.109 244.123 333.119 249.233L353.829 280.933C353.829 280.933 354.779 281.833 356.239 282.573C353.699 285.013 352.549 287.633 353.479 289.493C353.579 289.693 354.949 291.563 355.079 291.733C356.719 293.653 360.899 293.753 365.479 292.053C365.489 292.053 365.499 292.053 365.509 292.043C366.329 291.743 367.179 291.383 368.019 290.953C369.429 290.243 370.699 289.433 371.819 288.553C371.819 288.553 371.839 288.543 371.849 288.533C375.009 286.063 376.799 283.183 376.309 281.033C376.259 280.803 374.939 278.893 374.819 278.673C373.869 276.803 370.989 276.203 367.449 276.853C367.869 274.743 367.169 272.323 365.139 269.303C363.599 266.993 359.059 261.043 353.879 253.393C345.959 241.723 336.509 226.163 333.769 213.663C330.829 200.213 333.069 193.463 332.349 186.313C333.619 186.643 334.959 186.833 336.339 186.833C344.509 186.833 351.199 180.553 351.829 172.563C357.039 175.483 363.289 177.773 371.749 185.413C387.479 199.623 401.349 234.013 404.469 240.263C405.489 242.283 406.539 243.753 407.699 244.743C410.109 246.803 412.899 246.753 416.519 245.273C418.209 244.583 419.189 243.433 419.759 242.183C420.979 239.463 420.209 236.213 420.209 236.213L402.959 202.503C390.059 179.973 371.109 166.053 357.489 158.353C355.269 160.723 352.959 162.983 350.589 165.103C350.319 164.483 350.009 163.893 349.669 163.323C347.259 159.323 343.109 156.493 338.249 155.903C337.609 155.803 336.979 155.773 336.329 155.773C328.789 155.773 322.489 161.153 321.099 168.293C320.899 169.263 320.799 170.263 320.799 171.303C320.799 173.963 321.469 176.453 322.639 178.643C323.339 179.953 324.229 181.153 325.259 182.203C322.649 183.523 320.009 184.763 317.359 185.883C317.129 198.073 318.479 215.623 325.629 233.853L325.649 233.823Z" stroke="#681E28" stroke-width="3" stroke-linecap="round" stroke-linejoin="round"/>
<path d="M453.279 284.834C448.649 282.174 437.649 265.174 430.639 263.904C430.639 263.904 416.019 261.754 412.259 273.114C408.509 284.474 415.599 307.534 422.269 312.434C428.939 317.334 439.659 320.894 450.719 314.014C461.779 307.144 471.959 291.184 468.789 289.234C465.619 287.284 457.909 287.484 453.269 284.824L453.279 284.834Z" stroke="#681E28" stroke-width="3" stroke-linecap="round" stroke-linejoin="round"/>
<path d="M369.349 308.443C369.349 308.443 373.459 298.863 381.669 297.423C383.379 295.593 384.329 293.693 384.159 292.133V292.103C384.159 292.103 384.159 292.083 384.139 292.083V292.063C383.839 291.493 383.559 290.953 383.239 290.403C382.939 289.933 382.649 289.513 382.599 289.433C381.359 286.973 376.819 286.693 371.839 288.543C371.829 288.543 371.819 288.543 371.809 288.553C370.699 289.433 369.419 290.243 368.009 290.953C367.169 291.383 366.329 291.743 365.499 292.043C365.499 292.043 365.479 292.053 365.469 292.063C365.469 292.063 365.489 292.053 365.499 292.043C365.489 292.043 365.479 292.043 365.469 292.053C360.889 293.753 356.709 293.653 355.069 291.733C354.939 291.563 353.569 289.693 353.469 289.493C352.529 287.633 353.689 285.013 356.229 282.573C354.779 281.833 353.819 280.933 353.819 280.933L333.109 249.233C330.099 244.123 327.629 238.933 325.639 233.823C320.549 231.163 315.259 228.813 309.819 226.793C294.809 221.213 278.569 218.163 261.619 218.163C185.139 218.163 123.139 280.173 123.139 356.643C123.139 433.113 185.149 495.123 261.619 495.123C338.089 495.123 400.099 433.113 400.099 356.643C400.099 355.717 400.099 355.717 400.099 356.643C400.099 433.123 338.089 495.123 261.619 495.123C185.149 495.123 123.139 433.113 123.139 356.643C123.139 280.173 185.149 218.163 261.619 218.163C278.569 218.163 294.809 221.213 309.819 226.793C315.259 228.813 320.549 231.163 325.639 233.823C318.489 215.593 317.129 198.053 317.369 185.863C288.109 198.413 257.009 200.063 238.869 200.063C211.489 200.063 178.919 186.253 169.639 178.073C160.359 169.883 166.199 158.013 166.199 158.013C166.199 158.013 -21.421 260.233 4.44896 427.143C4.44896 427.143 5.08905 430.403 6.53905 435.713C12.7891 415.993 27.2791 389.623 60.0891 389.623C112.499 389.623 151.329 452.383 151.329 452.383C151.329 452.383 177.739 485.293 190.169 541.183C197.169 543.173 205.399 544.713 214.399 544.913C242.209 545.553 302.709 544.913 302.709 544.913C302.709 544.913 316.379 544.763 329.989 541.083C342.679 486.963 368.159 455.213 368.159 455.213C368.159 455.213 406.979 392.453 459.379 392.453C491.649 392.453 506.209 417.973 512.629 437.583C525.099 384.063 511.029 331.403 511.029 331.403C511.029 331.403 499.229 284.503 462.339 245.533C425.469 206.543 418.349 190.533 358.839 156.883C358.839 156.883 370.319 140.553 352.859 133.773C278.349 223.803 166.209 158.023 166.209 158.023C166.209 158.023 160.379 169.893 169.649 178.083C178.929 186.273 211.499 200.073 238.879 200.073C257.009 200.073 288.109 198.423 317.379 185.873C320.039 184.743 322.679 183.503 325.279 182.183C324.249 181.133 323.359 179.933 322.659 178.623C321.489 176.433 320.819 173.943 320.819 171.283C320.819 170.243 320.919 169.243 321.119 168.273C322.509 161.133 328.809 155.753 336.349 155.753C336.999 155.753 337.639 155.783 338.269 155.883C343.129 156.473 347.279 159.293 349.689 163.303C350.029 163.873 350.339 164.473 350.609 165.083C352.979 162.963 355.289 160.703 357.509 158.333C371.129 166.043 390.079 179.963 402.979 202.483L420.229 236.193C420.229 236.193 420.999 239.433 419.779 242.163C419.209 243.413 418.229 244.573 416.539 245.253C412.909 246.723 410.119 246.773 407.719 244.723C404.479 246.463 402.559 248.803 403.009 250.893C403.059 251.113 403.909 253.263 404.009 253.463C405.099 255.733 409.139 256.883 413.969 256.403C415.269 255.833 416.729 255.363 418.289 255.033C419.219 254.833 420.129 254.693 421.019 254.603C424.719 253.003 427.169 250.663 427.249 248.473C427.269 248.223 426.459 246.053 426.409 245.813C425.979 243.753 423.349 242.453 419.789 242.183C423.349 242.453 425.969 243.753 426.409 245.813C426.459 246.043 427.259 248.223 427.249 248.473C427.179 250.663 424.719 253.003 421.019 254.603C426.309 254.073 430.639 255.483 431.229 258.173C431.279 258.403 432.079 260.583 432.069 260.833C432.039 261.853 431.479 262.903 430.519 263.893C431.489 262.903 432.039 261.853 432.069 260.833C432.089 260.583 431.279 258.413 431.229 258.173C430.639 255.483 426.309 254.073 421.019 254.603C419.719 255.163 418.269 255.633 416.719 255.973C415.789 256.173 414.869 256.313 413.979 256.403C409.899 258.173 407.329 260.873 407.849 263.253C407.899 263.473 408.739 265.623 408.839 265.823C409.609 267.413 411.799 268.443 414.709 268.783C411.799 268.453 409.609 267.413 408.839 265.823C408.739 265.623 407.899 263.463 407.849 263.253C407.329 260.873 409.899 258.173 413.979 256.403C409.149 256.883 405.109 255.733 404.019 253.463C403.919 253.263 403.069 251.103 403.019 250.893C402.569 248.803 404.489 246.463 407.729 244.723C406.579 243.733 405.519 242.263 404.499 240.243C401.369 233.993 387.499 199.593 371.779 185.393C363.329 177.753 357.079 175.463 351.859 172.543C351.219 180.533 344.539 186.813 336.369 186.813C334.979 186.813 333.649 186.633 332.379 186.293C333.099 193.443 330.859 200.193 333.799 213.643C336.539 226.143 345.979 241.703 353.909 253.373C359.089 261.023 363.639 266.973 365.169 269.283C367.189 272.313 367.889 274.733 367.479 276.833C371.019 276.183 373.899 276.783 374.849 278.653C374.969 278.873 376.289 280.773 376.339 281.013C376.819 283.173 375.039 286.043 371.879 288.513C371.879 288.513 371.859 288.523 371.849 288.533C371.859 288.533 371.869 288.533 371.879 288.523C376.859 286.663 381.409 286.953 382.639 289.413C382.689 289.493 382.969 289.913 383.279 290.383C383.679 290.983 384.099 291.633 384.129 291.773C384.149 291.863 384.159 291.953 384.179 292.053C384.179 292.073 384.199 292.073 384.199 292.083V292.113C384.369 293.683 383.419 295.573 381.709 297.403C383.279 297.133 384.989 297.143 386.849 297.583M209.449 195.843C206.979 204.383 203.419 217.753 200.689 232.273C203.409 217.753 206.969 204.383 209.449 195.843ZM412.259 273.113C416.009 261.753 430.639 263.903 430.639 263.903L412.259 273.113Z" fill="#F4E9C9"/>
<path d="M369.349 308.443C369.349 308.443 373.459 298.863 381.669 297.423C383.379 295.593 384.329 293.693 384.159 292.133V292.103C384.159 292.103 384.159 292.083 384.139 292.083V292.063C383.839 291.493 383.559 290.953 383.239 290.403C382.939 289.933 382.649 289.513 382.599 289.433C381.359 286.973 376.819 286.693 371.839 288.543C371.829 288.543 371.819 288.543 371.809 288.553C370.699 289.433 369.419 290.243 368.009 290.953C367.169 291.383 366.329 291.743 365.499 292.043M365.499 292.043C365.499 292.043 365.479 292.053 365.469 292.063M365.499 292.043C365.489 292.053 365.469 292.063 365.469 292.063M365.499 292.043C365.489 292.043 365.479 292.043 365.469 292.053C360.889 293.753 356.709 293.653 355.069 291.733C354.939 291.563 353.569 289.693 353.469 289.493C352.529 287.633 353.689 285.013 356.229 282.573C354.779 281.833 353.819 280.933 353.819 280.933L333.109 249.233C330.099 244.123 327.629 238.933 325.639 233.823M365.469 292.063C361.959 294.823 360.159 298.083 361.259 300.253C361.359 300.453 362.729 302.313 362.859 302.493C364.449 304.353 368.429 304.503 372.839 302.963M325.639 233.823C320.549 231.163 315.259 228.813 309.819 226.793M325.639 233.823C318.489 215.593 317.129 198.053 317.369 185.863C288.109 198.413 257.009 200.063 238.869 200.063C211.489 200.063 178.919 186.253 169.639 178.073C160.359 169.883 166.199 158.013 166.199 158.013C166.199 158.013 -21.421 260.233 4.44896 427.143C4.44896 427.143 5.08905 430.403 6.53905 435.713C12.7891 415.993 27.2791 389.623 60.0891 389.623C112.499 389.623 151.329 452.383 151.329 452.383C151.329 452.383 177.739 485.293 190.169 541.183C197.169 543.173 205.399 544.713 214.399 544.913C242.209 545.553 302.709 544.913 302.709 544.913C302.709 544.913 316.379 544.763 329.989 541.083C342.679 486.963 368.159 455.213 368.159 455.213C368.159 455.213 406.979 392.453 459.379 392.453C491.649 392.453 506.209 417.973 512.629 437.583C525.099 384.063 511.029 331.403 511.029 331.403C511.029 331.403 499.229 284.503 462.339 245.533C425.469 206.543 418.349 190.533 358.839 156.883M309.819 226.793V226.813M309.819 226.793C294.809 221.213 278.569 218.163 261.619 218.163M309.819 226.793C308.249 209.793 305.759 198.053 303.819 190.913M261.619 218.163C185.139 218.163 123.139 280.173 123.139 356.643M261.619 218.163C185.149 218.163 123.139 280.173 123.139 356.643M123.139 356.643C123.139 433.113 185.149 495.123 261.619 495.123M261.619 495.123C338.089 495.123 400.099 433.113 400.099 356.643M261.619 495.123C338.089 495.123 400.099 433.123 400.099 356.643M400.099 356.643C400.099 355.717 400.099 355.717 400.099 356.643ZM358.839 156.883C358.839 156.883 370.319 140.553 352.859 133.773C278.349 223.803 166.209 158.023 166.209 158.023C166.209 158.023 160.379 169.893 169.649 178.083C178.929 186.273 211.499 200.073 238.879 200.073C257.009 200.073 288.109 198.423 317.379 185.873C320.039 184.743 322.679 183.503 325.279 182.183C324.249 181.133 323.359 179.933 322.659 178.623C321.489 176.433 320.819 173.943 320.819 171.283C320.819 170.243 320.919 169.243 321.119 168.273C322.509 161.133 328.809 155.753 336.349 155.753C336.999 155.753 337.639 155.783 338.269 155.883C343.129 156.473 347.279 159.293 349.689 163.303C350.029 163.873 350.339 164.473 350.609 165.083C352.979 162.963 355.289 160.703 357.509 158.333M358.839 156.883C358.389 157.363 357.959 157.853 357.509 158.333M357.509 158.333C371.129 166.043 390.079 179.963 402.979 202.483L420.229 236.193C420.229 236.193 420.999 239.433 419.779 242.163C419.209 243.413 418.229 244.573 416.539 245.253C412.909 246.723 410.119 246.773 407.719 244.723C404.479 246.463 402.559 248.803 403.009 250.893C403.059 251.113 403.909 253.263 404.009 253.463C405.099 255.733 409.139 256.883 413.969 256.403C415.269 255.833 416.729 255.363 418.289 255.033C419.219 254.833 420.129 254.693 421.019 254.603M421.019 254.603C424.719 253.003 427.169 250.663 427.249 248.473M421.019 254.603C424.719 253.003 427.179 250.663 427.249 248.473M421.019 254.603C426.309 254.073 430.639 255.483 431.229 258.173M421.019 254.603C419.719 255.163 418.269 255.633 416.719 255.973C415.789 256.173 414.869 256.313 413.979 256.403M427.249 248.473C427.269 248.223 426.459 246.053 426.409 245.813M427.249 248.473C427.259 248.223 426.459 246.043 426.409 245.813M426.409 245.813C425.979 243.753 423.349 242.453 419.789 242.183C423.349 242.453 425.969 243.753 426.409 245.813ZM431.229 258.173C431.279 258.403 432.079 260.583 432.069 260.833M431.229 258.173C431.279 258.413 432.089 260.583 432.069 260.833M432.069 260.833C432.039 261.853 431.479 262.903 430.519 263.893C431.489 262.903 432.039 261.853 432.069 260.833ZM413.979 256.403C409.899 258.173 407.329 260.873 407.849 263.253M413.979 256.403C409.149 256.883 405.109 255.733 404.019 253.463C403.919 253.263 403.069 251.103 403.019 250.893C402.569 248.803 404.489 246.463 407.729 244.723C406.579 243.733 405.519 242.263 404.499 240.243C401.369 233.993 387.499 199.593 371.779 185.393C363.329 177.753 357.079 175.463 351.859 172.543C351.219 180.533 344.539 186.813 336.369 186.813C334.979 186.813 333.649 186.633 332.379 186.293C333.099 193.443 330.859 200.193 333.799 213.643C336.539 226.143 345.979 241.703 353.909 253.373C359.089 261.023 363.639 266.973 365.169 269.283C367.189 272.313 367.889 274.733 367.479 276.833C371.019 276.183 373.899 276.783 374.849 278.653C374.969 278.873 376.289 280.773 376.339 281.013C376.819 283.173 375.039 286.043 371.879 288.513C371.879 288.513 371.859 288.523 371.849 288.533C371.859 288.533 371.869 288.533 371.879 288.523C376.859 286.663 381.409 286.953 382.639 289.413C382.689 289.493 382.969 289.913 383.279 290.383C383.679 290.983 384.099 291.633 384.129 291.773C384.149 291.863 384.159 291.953 384.179 292.053C384.179 292.073 384.199 292.073 384.199 292.083V292.113C384.369 293.683 383.419 295.573 381.709 297.403C383.279 297.133 384.989 297.143 386.849 297.583M407.849 263.253C407.899 263.473 408.739 265.623 408.839 265.823M407.849 263.253C407.899 263.463 408.739 265.623 408.839 265.823M408.839 265.823C409.609 267.413 411.799 268.443 414.709 268.783C411.799 268.453 409.609 267.413 408.839 265.823ZM412.259 273.113C416.009 261.753 430.639 263.903 430.639 263.903M209.449 195.843C206.979 204.383 203.419 217.753 200.689 232.273C203.409 217.753 206.969 204.383 209.449 195.843Z" stroke="#681E28" stroke-width="3" stroke-linecap="round" stroke-linejoin="round"/>
<path d="M369.349 308.443C369.349 308.443 373.459 298.863 381.669 297.423C383.379 295.593 384.329 293.693 384.159 292.133V292.103C384.159 292.103 384.159 292.083 384.139 292.083V292.063C383.839 291.493 383.559 290.953 383.239 290.403C382.939 289.933 382.649 289.513 382.599 289.433C381.359 286.973 376.819 286.693 371.839 288.543C371.829 288.543 371.819 288.543 371.809 288.553C370.699 289.433 369.419 290.243 368.009 290.953C367.169 291.383 366.329 291.743 365.499 292.043C365.499 292.043 365.479 292.053 365.469 292.063C365.469 292.063 365.489 292.053 365.499 292.043C365.489 292.043 365.479 292.043 365.469 292.053C360.889 293.753 356.709 293.653 355.069 291.733C354.939 291.563 353.569 289.693 353.469 289.493C352.529 287.633 353.689 285.013 356.229 282.573C354.779 281.833 353.819 280.933 353.819 280.933L333.109 249.233C330.099 244.123 327.629 238.933 325.639 233.823C320.549 231.163 315.259 228.813 309.819 226.793C294.809 221.213 278.569 218.163 261.619 218.163C185.139 218.163 123.139 280.173 123.139 356.643C123.139 433.113 185.149 495.123 261.619 495.123C338.089 495.123 400.099 433.113 400.099 356.643C400.099 355.717 400.099 355.717 400.099 356.643C400.099 433.123 338.089 495.123 261.619 495.123C185.149 495.123 123.139 433.113 123.139 356.643C123.139 280.173 185.149 218.163 261.619 218.163C278.569 218.163 294.809 221.213 309.819 226.793C315.259 228.813 320.549 231.163 325.639 233.823C318.489 215.593 317.129 198.053 317.369 185.863C288.109 198.413 257.009 200.063 238.869 200.063C211.489 200.063 178.919 186.253 169.639 178.073C160.359 169.883 166.199 158.013 166.199 158.013C166.199 158.013 -21.421 260.233 4.44896 427.143C4.44896 427.143 5.08905 430.403 6.53905 435.713C12.7891 415.993 27.2791 389.623 60.0891 389.623C112.499 389.623 151.329 452.383 151.329 452.383C151.329 452.383 177.739 485.293 190.169 541.183C197.169 543.173 205.399 544.713 214.399 544.913C242.209 545.553 302.709 544.913 302.709 544.913C302.709 544.913 316.379 544.763 329.989 541.083C342.679 486.963 368.159 455.213 368.159 455.213C368.159 455.213 406.979 392.453 459.379 392.453C491.649 392.453 506.209 417.973 512.629 437.583C525.099 384.063 511.029 331.403 511.029 331.403C511.029 331.403 499.229 284.503 462.339 245.533C425.469 206.543 418.349 190.533 358.839 156.883C358.839 156.883 370.319 140.553 352.859 133.773C278.349 223.803 166.209 158.023 166.209 158.023C166.209 158.023 160.379 169.893 169.649 178.083C178.929 186.273 211.499 200.073 238.879 200.073C257.009 200.073 288.109 198.423 317.379 185.873C320.039 184.743 322.679 183.503 325.279 182.183C324.249 181.133 323.359 179.933 322.659 178.623C321.489 176.433 320.819 173.943 320.819 171.283C320.819 170.243 320.919 169.243 321.119 168.273C322.509 161.133 328.809 155.753 336.349 155.753C336.999 155.753 337.639 155.783 338.269 155.883C343.129 156.473 347.279 159.293 349.689 163.303C350.029 163.873 350.339 164.473 350.609 165.083C352.979 162.963 355.289 160.703 357.509 158.333C371.129 166.043 390.079 179.963 402.979 202.483L420.229 236.193C420.229 236.193 420.999 239.433 419.779 242.163C419.209 243.413 418.229 244.573 416.539 245.253C412.909 246.723 410.119 246.773 407.719 244.723C404.479 246.463 402.559 248.803 403.009 250.893C403.059 251.113 403.909 253.263 404.009 253.463C405.099 255.733 409.139 256.883 413.969 256.403C415.269 255.833 416.729 255.363 418.289 255.033C419.219 254.833 420.129 254.693 421.019 254.603C424.719 253.003 427.169 250.663 427.249 248.473C427.269 248.223 426.459 246.053 426.409 245.813C425.979 243.753 423.349 242.453 419.789 242.183C423.349 242.453 425.969 243.753 426.409 245.813C426.459 246.043 427.259 248.223 427.249 248.473C427.179 250.663 424.719 253.003 421.019 254.603C426.309 254.073 430.639 255.483 431.229 258.173C431.279 258.403 432.079 260.583 432.069 260.833C432.039 261.853 431.479 262.903 430.519 263.893C431.489 262.903 432.039 261.853 432.069 260.833C432.089 260.583 431.279 258.413 431.229 258.173C430.639 255.483 426.309 254.073 421.019 254.603C419.719 255.163 418.269 255.633 416.719 255.973C415.789 256.173 414.869 256.313 413.979 256.403C409.899 258.173 407.329 260.873 407.849 263.253C407.899 263.473 408.739 265.623 408.839 265.823C409.609 267.413 411.799 268.443 414.709 268.783C411.799 268.453 409.609 267.413 408.839 265.823C408.739 265.623 407.899 263.463 407.849 263.253C407.329 260.873 409.899 258.173 413.979 256.403C409.149 256.883 405.109 255.733 404.019 253.463C403.919 253.263 403.069 251.103 403.019 250.893C402.569 248.803 404.489 246.463 407.729 244.723C406.579 243.733 405.519 242.263 404.499 240.243C401.369 233.993 387.499 199.593 371.779 185.393C363.329 177.753 357.079 175.463 351.859 172.543C351.219 180.533 344.539 186.813 336.369 186.813C334.979 186.813 333.649 186.633 332.379 186.293C333.099 193.443 330.859 200.193 333.799 213.643C336.539 226.143 345.979 241.703 353.909 253.373C359.089 261.023 363.639 266.973 365.169 269.283C367.189 272.313 367.889 274.733 367.479 276.833C371.019 276.183 373.899 276.783 374.849 278.653C374.969 278.873 376.289 280.773 376.339 281.013C376.819 283.173 375.039 286.043 371.879 288.513C371.879 288.513 371.859 288.523 371.849 288.533C371.859 288.533 371.869 288.533 371.879 288.523C376.859 286.663 381.409 286.953 382.639 289.413C382.689 289.493 382.969 289.913 383.279 290.383C383.679 290.983 384.099 291.633 384.129 291.773C384.149 291.863 384.159 291.953 384.179 292.053C384.179 292.073 384.199 292.073 384.199 292.083V292.113C384.369 293.683 383.419 295.573 381.709 297.403C383.279 297.133 384.989 297.143 386.849 297.583M209.449 195.843C206.979 204.383 203.419 217.753 200.689 232.273C203.409 217.753 206.969 204.383 209.449 195.843ZM412.259 273.113C416.009 261.753 430.639 263.903 430.639 263.903L412.259 273.113Z" fill="#F4E9C9"/>
<path d="M369.349 308.443C369.349 308.443 373.459 298.863 381.669 297.423C383.379 295.593 384.329 293.693 384.159 292.133V292.103C384.159 292.103 384.159 292.083 384.139 292.083V292.063C383.839 291.493 383.559 290.953 383.239 290.403C382.939 289.933 382.649 289.513 382.599 289.433C381.359 286.973 376.819 286.693 371.839 288.543C371.829 288.543 371.819 288.543 371.809 288.553C370.699 289.433 369.419 290.243 368.009 290.953C367.169 291.383 366.329 291.743 365.499 292.043M365.499 292.043C365.499 292.043 365.479 292.053 365.469 292.063M365.499 292.043C365.489 292.053 365.469 292.063 365.469 292.063M365.499 292.043C365.489 292.043 365.479 292.043 365.469 292.053C360.889 293.753 356.709 293.653 355.069 291.733C354.939 291.563 353.569 289.693 353.469 289.493C352.529 287.633 353.689 285.013 356.229 282.573C354.779 281.833 353.819 280.933 353.819 280.933L333.109 249.233C330.099 244.123 327.629 238.933 325.639 233.823M365.469 292.063C361.959 294.823 360.159 298.083 361.259 300.253C361.359 300.453 362.729 302.313 362.859 302.493C364.449 304.353 368.429 304.503 372.839 302.963M325.639 233.823C320.549 231.163 315.259 228.813 309.819 226.793M325.639 233.823C318.489 215.593 317.129 198.053 317.369 185.863C288.109 198.413 257.009 200.063 238.869 200.063C211.489 200.063 178.919 186.253 169.639 178.073C160.359 169.883 166.199 158.013 166.199 158.013C166.199 158.013 -21.421 260.233 4.44896 427.143C4.44896 427.143 5.08905 430.403 6.53905 435.713C12.7891 415.993 27.2791 389.623 60.0891 389.623C112.499 389.623 151.329 452.383 151.329 452.383C151.329 452.383 177.739 485.293 190.169 541.183C197.169 543.173 205.399 544.713 214.399 544.913C242.209 545.553 302.709 544.913 302.709 544.913C302.709 544.913 316.379 544.763 329.989 541.083C342.679 486.963 368.159 455.213 368.159 455.213C368.159 455.213 406.979 392.453 459.379 392.453C491.649 392.453 506.209 417.973 512.629 437.583C525.099 384.063 511.029 331.403 511.029 331.403C511.029 331.403 499.229 284.503 462.339 245.533C425.469 206.543 418.349 190.533 358.839 156.883M309.819 226.793V226.813M309.819 226.793C294.809 221.213 278.569 218.163 261.619 218.163M309.819 226.793C308.249 209.793 305.759 198.053 303.819 190.913M261.619 218.163C185.139 218.163 123.139 280.173 123.139 356.643M261.619 218.163C185.149 218.163 123.139 280.173 123.139 356.643M123.139 356.643C123.139 433.113 185.149 495.123 261.619 495.123M261.619 495.123C338.089 495.123 400.099 433.113 400.099 356.643M261.619 495.123C338.089 495.123 400.099 433.123 400.099 356.643M400.099 356.643C400.099 355.717 400.099 355.717 400.099 356.643ZM358.839 156.883C358.839 156.883 370.319 140.553 352.859 133.773C278.349 223.803 166.209 158.023 166.209 158.023C166.209 158.023 160.379 169.893 169.649 178.083C178.929 186.273 211.499 200.073 238.879 200.073C257.009 200.073 288.109 198.423 317.379 185.873C320.039 184.743 322.679 183.503 325.279 182.183C324.249 181.133 323.359 179.933 322.659 178.623C321.489 176.433 320.819 173.943 320.819 171.283C320.819 170.243 320.919 169.243 321.119 168.273C322.509 161.133 328.809 155.753 336.349 155.753C336.999 155.753 337.639 155.783 338.269 155.883C343.129 156.473 347.279 159.293 349.689 163.303C350.029 163.873 350.339 164.473 350.609 165.083C352.979 162.963 355.289 160.703 357.509 158.333M358.839 156.883C358.389 157.363 357.959 157.853 357.509 158.333M357.509 158.333C371.129 166.043 390.079 179.963 402.979 202.483L420.229 236.193C420.229 236.193 420.999 239.433 419.779 242.163C419.209 243.413 418.229 244.573 416.539 245.253C412.909 246.723 410.119 246.773 407.719 244.723C404.479 246.463 402.559 248.803 403.009 250.893C403.059 251.113 403.909 253.263 404.009 253.463C405.099 255.733 409.139 256.883 413.969 256.403C415.269 255.833 416.729 255.363 418.289 255.033C419.219 254.833 420.129 254.693 421.019 254.603M421.019 254.603C424.719 253.003 427.169 250.663 427.249 248.473M421.019 254.603C424.719 253.003 427.179 250.663 427.249 248.473M421.019 254.603C426.309 254.073 430.639 255.483 431.229 258.173M421.019 254.603C419.719 255.163 418.269 255.633 416.719 255.973C415.789 256.173 414.869 256.313 413.979 256.403M427.249 248.473C427.269 248.223 426.459 246.053 426.409 245.813M427.249 248.473C427.259 248.223 426.459 246.043 426.409 245.813M426.409 245.813C425.979 243.753 423.349 242.453 419.789 242.183C423.349 242.453 425.969 243.753 426.409 245.813ZM431.229 258.173C431.279 258.403 432.079 260.583 432.069 260.833M431.229 258.173C431.279 258.413 432.089 260.583 432.069 260.833M432.069 260.833C432.039 261.853 431.479 262.903 430.519 263.893C431.489 262.903 432.039 261.853 432.069 260.833ZM413.979 256.403C409.899 258.173 407.329 260.873 407.849 263.253M413.979 256.403C409.149 256.883 405.109 255.733 404.019 253.463C403.919 253.263 403.069 251.103 403.019 250.893C402.569 248.803 404.489 246.463 407.729 244.723C406.579 243.733 405.519 242.263 404.499 240.243C401.369 233.993 387.499 199.593 371.779 185.393C363.329 177.753 357.079 175.463 351.859 172.543C351.219 180.533 344.539 186.813 336.369 186.813C334.979 186.813 333.649 186.633 332.379 186.293C333.099 193.443 330.859 200.193 333.799 213.643C336.539 226.143 345.979 241.703 353.909 253.373C359.089 261.023 363.639 266.973 365.169 269.283C367.189 272.313 367.889 274.733 367.479 276.833C371.019 276.183 373.899 276.783 374.849 278.653C374.969 278.873 376.289 280.773 376.339 281.013C376.819 283.173 375.039 286.043 371.879 288.513C371.879 288.513 371.859 288.523 371.849 288.533C371.859 288.533 371.869 288.533 371.879 288.523C376.859 286.663 381.409 286.953 382.639 289.413C382.689 289.493 382.969 289.913 383.279 290.383C383.679 290.983 384.099 291.633 384.129 291.773C384.149 291.863 384.159 291.953 384.179 292.053C384.179 292.073 384.199 292.073 384.199 292.083V292.113C384.369 293.683 383.419 295.573 381.709 297.403C383.279 297.133 384.989 297.143 386.849 297.583M407.849 263.253C407.899 263.473 408.739 265.623 408.839 265.823M407.849 263.253C407.899 263.463 408.739 265.623 408.839 265.823M408.839 265.823C409.609 267.413 411.799 268.443 414.709 268.783C411.799 268.453 409.609 267.413 408.839 265.823ZM412.259 273.113C416.009 261.753 430.639 263.903 430.639 263.903M209.449 195.843C206.979 204.383 203.419 217.753 200.689 232.273C203.409 217.753 206.969 204.383 209.449 195.843Z" stroke="#681E28" stroke-width="3" stroke-linecap="round" stroke-linejoin="round"/>
<path d="M393.749 314.054C397.809 327.104 399.989 340.984 399.989 355.374C399.989 432.134 337.759 494.364 260.999 494.364C184.239 494.364 122.009 432.134 122.009 355.374C122.009 278.614 184.239 216.384 260.999 216.384C290.539 216.384 317.919 225.594 340.429 241.304" fill="#F4E9C9"/>
<path d="M393.749 314.054C397.809 327.104 399.989 340.984 399.989 355.374C399.989 432.134 337.759 494.364 260.999 494.364C184.239 494.364 122.009 432.134 122.009 355.374C122.009 278.614 184.239 216.384 260.999 216.384C290.539 216.384 317.919 225.594 340.429 241.304" stroke="#681E28" stroke-width="2.97" stroke-linecap="round" stroke-linejoin="round"/>
<path d="M325.649 233.824C327.639 238.934 330.109 244.124 333.119 249.234L353.829 280.934C353.829 280.934 354.779 281.834 356.239 282.574C358.159 283.544 360.949 284.244 363.529 282.224C365.699 280.504 367.069 278.794 367.459 276.844C367.879 274.734 367.179 272.314 365.149 269.294C363.609 266.984 359.069 261.034 353.889 253.384C345.969 241.714 336.519 226.154 333.779 213.654C330.839 200.204 333.079 193.454 332.359 186.304C329.639 185.584 327.219 184.134 325.289 182.194C322.679 183.514 320.039 184.754 317.379 185.874C317.149 198.054 318.499 215.604 325.649 233.834V233.824Z" fill="#F4E9C9" stroke="#681E28" stroke-width="3" stroke-linecap="round" stroke-linejoin="round"/>
<path d="M352.859 133.774C352.859 133.774 378.409 90.4239 376.789 53.5539C376.789 53.5539 376.989 50.2439 376.169 45.9039C370.539 53.8239 358.839 64.8739 344.979 66.1639C332.559 67.3139 327.599 75.5239 325.729 83.4739C324.809 87.4039 324.639 91.2839 324.709 94.2039C324.929 103.044 295.809 126.544 269.289 97.2139C242.749 67.9039 214.289 94.4239 208.909 98.0839C203.509 101.744 172.889 123.534 166.639 103.264C165.489 99.5239 163.969 96.5439 162.259 94.1839C168.289 110.064 176.889 132.984 198.659 155.484C176.879 132.984 168.289 110.064 162.259 94.1839C154.809 83.7839 143.779 85.3639 143.779 85.3639C125.829 86.2539 115.499 80.6039 110.039 75.7739C115.509 80.6039 125.829 86.2539 143.779 85.3639C143.779 85.3639 154.809 83.7939 162.259 94.1839C163.959 96.5439 165.489 99.5139 166.639 103.264C172.889 123.534 203.509 101.744 208.909 98.0839C214.289 94.4239 242.749 67.9039 269.289 97.2139C295.809 126.544 324.929 103.044 324.709 94.2039C324.639 91.2839 324.809 87.4039 325.729 83.4739C327.599 75.5139 332.569 67.3139 344.979 66.1639C358.839 64.8739 370.529 53.8339 376.169 45.9039C374.929 39.2039 371.289 30.0639 360.779 27.0139C343.469 22.0039 338.619 32.8439 324.229 32.3639C309.819 31.8839 304.979 15.2139 279.739 11.4939C254.519 7.78389 260.659 17.9639 248.369 17.9639C233.049 17.9639 229.279 6.81389 210.199 8.10389C191.109 9.40389 192.079 31.2339 178.499 35.9339C164.909 40.6139 134.999 38.6739 118.179 53.0639C118.179 53.0639 106.209 62.4539 109.919 75.3939C109.949 75.5239 109.989 75.6439 110.039 75.7739C113.919 89.0139 127.619 124.244 166.209 158.034C166.209 158.034 278.359 223.814 352.859 133.784V133.774Z" fill="#F4E9C9"/>
<path d="M376.169 45.9039C376.989 50.2439 376.789 53.5539 376.789 53.5539C378.409 90.4239 352.859 133.774 352.859 133.774V133.784C278.359 223.814 166.209 158.034 166.209 158.034C127.619 124.244 113.919 89.0139 110.039 75.7739M376.169 45.9039C370.539 53.8239 358.839 64.8739 344.979 66.1639M376.169 45.9039C370.529 53.8339 358.839 64.8739 344.979 66.1639M376.169 45.9039C374.929 39.2039 371.289 30.0639 360.779 27.0139C343.469 22.0039 338.619 32.8439 324.229 32.3639C309.819 31.8839 304.979 15.2139 279.739 11.4939C254.519 7.78389 260.659 17.9639 248.369 17.9639C233.049 17.9639 229.279 6.81389 210.199 8.10389C191.109 9.40389 192.079 31.2339 178.499 35.9339C164.909 40.6139 134.999 38.6739 118.179 53.0639C118.179 53.0639 106.209 62.4539 109.919 75.3939C109.949 75.5239 109.989 75.6439 110.039 75.7739M344.979 66.1639C332.559 67.3139 327.599 75.5239 325.729 83.4739M344.979 66.1639C332.569 67.3139 327.599 75.5139 325.729 83.4739M325.729 83.4739C326.799 97.5939 324.459 123.934 299.039 148.754M325.729 83.4739C324.809 87.4039 324.639 91.2839 324.709 94.2039C324.929 103.044 295.809 126.544 269.289 97.2139C242.749 67.9039 214.289 94.4239 208.909 98.0839C203.509 101.744 172.889 123.534 166.639 103.264M166.639 103.264C165.489 99.5239 163.969 96.5439 162.259 94.1839M166.639 103.264C165.489 99.5139 163.959 96.5439 162.259 94.1839M162.259 94.1839C168.289 110.064 176.889 132.984 198.659 155.484C176.879 132.984 168.289 110.064 162.259 94.1839ZM162.259 94.1839C154.809 83.7839 143.779 85.3639 143.779 85.3639M162.259 94.1839C154.809 83.7939 143.779 85.3639 143.779 85.3639M143.779 85.3639C125.829 86.2539 115.499 80.6039 110.039 75.7739M143.779 85.3639C125.829 86.2539 115.509 80.6039 110.039 75.7739" stroke="#681E28" stroke-width="3" stroke-linecap="round" stroke-linejoin="round"/>
<path d="M352.859 133.774C352.859 133.774 378.409 90.4239 376.789 53.5539C376.789 53.5539 376.989 50.2439 376.169 45.9039C370.539 53.8239 358.839 64.8739 344.979 66.1639C332.559 67.3139 327.599 75.5239 325.729 83.4739C324.809 87.4039 324.639 91.2839 324.709 94.2039C324.929 103.044 295.809 126.544 269.289 97.2139C242.749 67.9039 214.289 94.4239 208.909 98.0839C203.509 101.744 172.889 123.534 166.639 103.264C165.489 99.5239 163.969 96.5439 162.259 94.1839C168.289 110.064 176.889 132.984 198.659 155.484C176.879 132.984 168.289 110.064 162.259 94.1839C154.809 83.7839 143.779 85.3639 143.779 85.3639C125.829 86.2539 115.499 80.6039 110.039 75.7739C115.509 80.6039 125.829 86.2539 143.779 85.3639C143.779 85.3639 154.809 83.7939 162.259 94.1839C163.959 96.5439 165.489 99.5139 166.639 103.264C172.889 123.534 203.509 101.744 208.909 98.0839C214.289 94.4239 242.749 67.9039 269.289 97.2139C295.809 126.544 324.929 103.044 324.709 94.2039C324.639 91.2839 324.809 87.4039 325.729 83.4739C327.599 75.5139 332.569 67.3139 344.979 66.1639C358.839 64.8739 370.529 53.8339 376.169 45.9039C374.929 39.2039 371.289 30.0639 360.779 27.0139C343.469 22.0039 338.619 32.8439 324.229 32.3639C309.819 31.8839 304.979 15.2139 279.739 11.4939C254.519 7.78389 260.659 17.9639 248.369 17.9639C233.049 17.9639 229.279 6.81389 210.199 8.10389C191.109 9.40389 192.079 31.2339 178.499 35.9339C164.909 40.6139 134.999 38.6739 118.179 53.0639C118.179 53.0639 106.209 62.4539 109.919 75.3939C109.949 75.5239 109.989 75.6439 110.039 75.7739C113.919 89.0139 127.619 124.244 166.209 158.034C166.209 158.034 278.359 223.814 352.859 133.784V133.774Z" fill="#F4E9C9"/>
<path d="M376.169 45.9039C376.989 50.2439 376.789 53.5539 376.789 53.5539C378.409 90.4239 352.859 133.774 352.859 133.774V133.784C278.359 223.814 166.209 158.034 166.209 158.034C127.619 124.244 113.919 89.0139 110.039 75.7739M376.169 45.9039C370.539 53.8239 358.839 64.8739 344.979 66.1639M376.169 45.9039C370.529 53.8339 358.839 64.8739 344.979 66.1639M376.169 45.9039C374.929 39.2039 371.289 30.0639 360.779 27.0139C343.469 22.0039 338.619 32.8439 324.229 32.3639C309.819 31.8839 304.979 15.2139 279.739 11.4939C254.519 7.78389 260.659 17.9639 248.369 17.9639C233.049 17.9639 229.279 6.81389 210.199 8.10389C191.109 9.40389 192.079 31.2339 178.499 35.9339C164.909 40.6139 134.999 38.6739 118.179 53.0639C118.179 53.0639 106.209 62.4539 109.919 75.3939C109.949 75.5239 109.989 75.6439 110.039 75.7739M344.979 66.1639C332.559 67.3139 327.599 75.5239 325.729 83.4739M344.979 66.1639C332.569 67.3139 327.599 75.5139 325.729 83.4739M325.729 83.4739C326.799 97.5939 324.459 123.934 299.039 148.754M325.729 83.4739C324.809 87.4039 324.639 91.2839 324.709 94.2039C324.929 103.044 295.809 126.544 269.289 97.2139C242.749 67.9039 214.289 94.4239 208.909 98.0839C203.509 101.744 172.889 123.534 166.639 103.264M166.639 103.264C165.489 99.5239 163.969 96.5439 162.259 94.1839M166.639 103.264C165.489 99.5139 163.959 96.5439 162.259 94.1839M162.259 94.1839C168.289 110.064 176.889 132.984 198.659 155.484C176.879 132.984 168.289 110.064 162.259 94.1839ZM162.259 94.1839C154.809 83.7839 143.779 85.3639 143.779 85.3639M162.259 94.1839C154.809 83.7939 143.779 85.3639 143.779 85.3639M143.779 85.3639C125.829 86.2539 115.499 80.6039 110.039 75.7739M143.779 85.3639C125.829 86.2539 115.509 80.6039 110.039 75.7739" stroke="#681E28" stroke-width="3" stroke-linecap="round" stroke-linejoin="round"/>
<path d="M325.279 182.184C322.669 183.504 320.029 184.744 317.379 185.864C320.039 184.744 322.679 183.504 325.289 182.184H325.279Z" fill="#F4E9C9" stroke="#681E28" stroke-width="3" stroke-linecap="round" stroke-linejoin="round"/>
<path d="M352.369 282.734C349.779 289.364 358.519 307.644 358.349 312.984C358.189 318.324 353.979 324.794 353.979 328.514C353.979 332.234 372.899 331.914 384.549 326.084C396.199 320.264 398.779 309.264 398.089 301.014C397.399 292.764 381.469 274.654 369.829 271.904C367.969 271.464 366.249 271.444 364.689 271.724C364.689 271.724 364.679 271.734 364.669 271.744C364.669 271.744 364.679 271.734 364.689 271.724C356.469 273.164 352.369 282.744 352.369 282.744V282.734Z" fill="#681E28"/>
<path d="M364.689 271.724C366.249 271.444 367.969 271.464 369.829 271.904C381.469 274.654 397.399 292.764 398.089 301.014C398.779 309.264 396.199 320.264 384.549 326.084C372.899 331.914 353.979 332.234 353.979 328.514C353.979 324.794 358.189 318.324 358.349 312.984C358.519 307.644 349.779 289.364 352.369 282.734V282.744C352.369 282.744 356.469 273.164 364.689 271.724ZM364.689 271.724C364.689 271.724 364.679 271.734 364.669 271.744C364.669 271.744 364.679 271.734 364.689 271.724Z" stroke="#681E28" stroke-width="3" stroke-linecap="round" stroke-linejoin="round"/>
<path d="M352.369 282.734C349.779 289.364 358.519 307.644 358.349 312.984C358.189 318.324 353.979 324.794 353.979 328.514C353.979 332.234 372.899 331.914 384.549 326.084C396.199 320.264 398.779 309.264 398.089 301.014C397.399 292.764 381.469 274.654 369.829 271.904C367.969 271.464 366.249 271.444 364.689 271.724C364.689 271.724 364.679 271.734 364.669 271.744C364.669 271.744 364.679 271.734 364.689 271.724C356.469 273.164 352.369 282.744 352.369 282.744V282.734Z" fill="#681E28"/>
<path d="M364.689 271.724C366.249 271.444 367.969 271.464 369.829 271.904C381.469 274.654 397.399 292.764 398.089 301.014C398.779 309.264 396.199 320.264 384.549 326.084C372.899 331.914 353.979 332.234 353.979 328.514C353.979 324.794 358.189 318.324 358.349 312.984C358.519 307.644 349.779 289.364 352.369 282.734V282.744C352.369 282.744 356.469 273.164 364.689 271.724ZM364.689 271.724C364.689 271.724 364.679 271.734 364.669 271.744C364.669 271.744 364.679 271.734 364.689 271.724Z" stroke="#681E28" stroke-width="3" stroke-linecap="round" stroke-linejoin="round"/>
<path d="M442.049 257.284C437.419 254.624 426.419 237.624 419.409 236.354C419.409 236.354 404.789 234.204 401.029 245.564C397.279 256.924 404.369 279.984 411.039 284.884C417.709 289.784 428.429 293.344 439.489 286.464C450.549 279.594 460.729 263.634 457.559 261.684C454.389 259.734 446.679 259.934 442.039 257.274L442.049 257.284Z" fill="#681E28" stroke="#681E28" stroke-width="3" stroke-linecap="round" stroke-linejoin="round"/>
<path d="M442.049 257.284C437.419 254.624 426.419 237.624 419.409 236.354C419.409 236.354 404.789 234.204 401.029 245.564C397.279 256.924 404.369 279.984 411.039 284.884C417.709 289.784 428.429 293.344 439.489 286.464C450.549 279.594 460.729 263.634 457.559 261.684C454.389 259.734 446.679 259.934 442.039 257.274L442.049 257.284Z" fill="#681E28" stroke="#681E28" stroke-width="3" stroke-linecap="round" stroke-linejoin="round"/>
<path d="M60.0991 389.634C27.2891 389.634 12.7991 416.004 6.54907 435.724C9.33907 445.814 15.1591 463.334 25.3691 479.984C26.3691 476.554 27.7391 472.764 29.5791 469.124C36.3291 455.684 51.6892 452.894 55.8892 452.894C83.0692 452.894 111.079 487.704 118.749 499.904L119.939 501.824L120.989 503.074C121.739 504.044 127.689 512.064 134.679 525.924C144.619 525.694 156.309 526.694 166.219 530.984C166.219 530.984 175.549 537.054 190.189 541.174C177.759 485.284 151.349 452.374 151.349 452.374C151.349 452.374 112.529 389.614 60.1091 389.614L60.0991 389.634Z" fill="#F4E9C9" stroke="#681E28" stroke-width="3" stroke-linecap="round" stroke-linejoin="round"/>
<path d="M119.929 501.824L118.739 499.904C111.069 487.704 83.0592 452.894 55.8792 452.894C51.6791 452.894 36.3291 455.684 29.5691 469.124C27.7291 472.764 26.3591 476.564 25.3591 479.984C32.8591 492.184 42.7391 503.914 55.5591 511.904C55.5591 511.904 80.149 530.674 112.499 528.404C112.499 528.404 122.209 526.214 134.659 525.934C127.669 512.074 121.719 504.054 120.969 503.084L119.919 501.834L119.929 501.824Z" fill="#681E28" stroke="#681E28" stroke-width="3" stroke-linecap="round" stroke-linejoin="round"/>
<path d="M119.929 501.825L118.739 499.905C111.069 487.705 83.0592 452.895 55.8792 452.895C51.6791 452.895 36.3291 455.685 29.5691 469.125C27.7291 472.765 26.3591 476.565 25.3591 479.985C32.8591 492.185 42.7391 503.915 55.5591 511.905C55.5591 511.905 80.149 530.675 112.499 528.405C112.499 528.405 122.209 526.215 134.659 525.935C127.669 512.075 121.719 504.055 120.969 503.085L119.919 501.835L119.929 501.825Z" fill="#681E28" stroke="#681E28" stroke-width="3" stroke-linecap="round" stroke-linejoin="round"/>
<path d="M459.389 392.454C406.989 392.454 368.169 455.214 368.169 455.214C368.169 455.214 342.679 486.964 329.999 541.084C337.099 539.174 344.189 536.284 349.299 531.954C349.299 531.954 365.959 521.144 387.319 523.964C393.189 513.034 397.869 506.754 398.519 505.884L399.569 504.644L400.759 502.724C408.429 490.524 436.439 455.714 463.619 455.714C467.819 455.714 483.539 457.134 490.289 470.574C491.779 473.534 492.949 476.554 493.869 479.414C501.059 469.574 507.259 457.804 511.029 443.984C511.609 441.844 512.149 439.704 512.629 437.584C506.209 417.984 491.649 392.454 459.379 392.454H459.389Z" fill="#F4E9C9" stroke="#681E28" stroke-width="3" stroke-linecap="round" stroke-linejoin="round"/>
<path d="M463.619 455.714C436.439 455.714 408.429 490.524 400.759 502.724L399.569 504.644L398.519 505.884C397.869 506.754 393.189 513.034 387.319 523.964C388.439 524.114 389.559 524.294 390.699 524.514C390.699 524.514 421.749 530.664 441.489 521.604C441.489 521.604 472.159 509.184 493.869 479.404C492.949 476.544 491.779 473.524 490.289 470.564C483.539 457.124 467.809 455.704 463.619 455.704V455.714Z" fill="#681E28" stroke="#681E28" stroke-width="3" stroke-linecap="round" stroke-linejoin="round"/>
<path d="M463.619 455.713C436.439 455.713 408.429 490.523 400.759 502.723L399.569 504.643L398.519 505.883C397.869 506.753 393.189 513.033 387.319 523.963C388.439 524.113 389.559 524.293 390.699 524.513C390.699 524.513 421.749 530.663 441.489 521.603C441.489 521.603 472.159 509.183 493.869 479.403C492.949 476.543 491.779 473.523 490.289 470.563C483.539 457.123 467.809 455.703 463.619 455.703V455.713Z" fill="#681E28" stroke="#681E28" stroke-width="3" stroke-linecap="round" stroke-linejoin="round"/>
<path d="M328.719 345.014H287.979V353.334H339.829C344.119 353.334 346.459 355.474 346.459 359.964V375.034C346.459 379.514 344.119 381.664 339.829 381.664H179.609C175.319 381.664 172.979 379.524 172.979 375.034V359.964C172.979 355.484 175.319 353.334 179.609 353.334H231.459V345.014H190.719C179.609 345.014 174.929 340.144 174.929 329.224V284.004C174.929 275.424 178.629 271.534 187.399 271.534H210.209C218.979 271.534 222.679 275.434 222.679 284.004V319.674H296.749V311.094H231.819C227.529 311.094 225.189 308.954 225.189 304.464V297.674C225.189 293.194 227.529 291.044 231.819 291.044H296.749V286.374C296.749 277.794 300.449 271.514 309.219 271.514H332.019C340.789 271.514 344.489 275.414 344.489 283.984V329.204C344.489 340.114 339.809 344.994 328.699 344.994L328.719 345.014ZM289.839 422.684C289.779 420.684 288.139 419.084 286.139 419.084H179.609C175.319 419.084 172.979 416.944 172.979 412.454V396.524C172.979 392.044 175.319 389.894 179.609 389.894H339.829C344.119 389.894 346.459 392.034 346.459 396.524V416.664C346.459 418.244 346.069 419.804 345.319 421.204L332.939 444.224C327.479 451.044 322.999 450.854 314.229 450.854H293.489C291.899 450.854 290.609 449.594 290.559 448.004L289.849 422.674L289.839 422.684Z" fill="#681E28"/>
<path d="M328.719 345.014H287.979V353.334H339.829C344.119 353.334 346.459 355.474 346.459 359.964V375.034C346.459 379.514 344.119 381.664 339.829 381.664H179.609C175.319 381.664 172.979 379.524 172.979 375.034V359.964C172.979 355.484 175.319 353.334 179.609 353.334H231.459V345.014H190.719C179.609 345.014 174.929 340.144 174.929 329.224V284.004C174.929 275.424 178.629 271.534 187.399 271.534H210.209C218.979 271.534 222.679 275.434 222.679 284.004V319.674H296.749V311.094H231.819C227.529 311.094 225.189 308.954 225.189 304.464V297.674C225.189 293.194 227.529 291.044 231.819 291.044H296.749V286.374C296.749 277.794 300.449 271.514 309.219 271.514H332.019C340.789 271.514 344.489 275.414 344.489 283.984V329.204C344.489 340.114 339.809 344.994 328.699 344.994L328.719 345.014ZM289.839 422.684C289.779 420.684 288.139 419.084 286.139 419.084H179.609C175.319 419.084 172.979 416.944 172.979 412.454V396.524C172.979 392.044 175.319 389.894 179.609 389.894H339.829C344.119 389.894 346.459 392.034 346.459 396.524V416.664C346.459 418.244 346.069 419.804 345.319 421.204L332.939 444.224C327.479 451.044 322.999 450.854 314.229 450.854H293.489C291.899 450.854 290.609 449.594 290.559 448.004L289.849 422.674L289.839 422.684Z" fill="#681E28"/>
</svg>
