<svg width="225" height="394" viewBox="0 0 225 394" fill="none" xmlns="http://www.w3.org/2000/svg">
<path d="M112.148 0.00491405C64.1977 0.450741 -0.320426 31.4357 0.444234 116.302C1.01773 180.915 67.6068 320.363 99.372 383.289C106.254 396.918 124.861 396.6 131.297 382.747C161.469 317.688 225.35 172.444 224.776 110.474C224.043 29.3977 160.099 -0.440913 112.148 0.00491405ZM113.231 181.616C75.1578 181.966 44.0297 151.395 43.6793 113.34C43.3288 75.286 73.9152 44.1736 111.989 43.8233C150.063 43.473 181.191 74.044 181.541 112.098C181.892 150.153 151.305 181.265 113.231 181.616Z" fill="#ED5F48"/>
</svg>
